<?xml version="1.0" encoding="UTF-8"?>
<svg id="Face" xmlns="http://www.w3.org/2000/svg" xmlns:xlink="http://www.w3.org/1999/xlink" viewBox="0 0 1080 1080">
  <defs>
    <style>
      .cls-1, .cls-2, .cls-3, .cls-4, .cls-5, .cls-6, .cls-7, .cls-8, .cls-9, .cls-10, .cls-11, .cls-12, .cls-13, .cls-14, .cls-15, .cls-16, .cls-17, .cls-18, .cls-19, .cls-20, .cls-21, .cls-22 {
        stroke-width: 0px;
      }

      .cls-1, .cls-23, .cls-24 {
        fill: none;
      }

      .cls-2 {
        fill: url(#linear-gradient);
      }

      .cls-23 {
        stroke: url(#linear-gradient-9);
      }

      .cls-23, .cls-24 {
        stroke-linecap: round;
        stroke-miterlimit: 10;
        stroke-width: 3px;
      }

      .cls-24 {
        stroke: url(#linear-gradient-10);
      }

      .cls-3 {
        fill: url(#linear-gradient-4);
      }

      .cls-4 {
        fill: url(#linear-gradient-2);
      }

      .cls-5 {
        fill: url(#linear-gradient-3);
      }

      .cls-6 {
        fill: url(#linear-gradient-8);
      }

      .cls-7 {
        fill: url(#linear-gradient-7);
      }

      .cls-8 {
        fill: url(#linear-gradient-5);
      }

      .cls-9 {
        fill: url(#linear-gradient-6);
      }

      .cls-10 {
        fill: #9b6b4b;
      }

      .cls-11 {
        fill: #543525;
      }

      .cls-12 {
        fill: #724d38;
      }

      .cls-13 {
        fill: #5b3a1f;
      }

      .cls-14 {
        fill: #43291c;
      }

      .cls-15 {
        fill: #d0dcdd;
      }

      .cls-16 {
        fill: #c4906c;
      }

      .cls-17 {
        fill: #a5a5a5;
      }

      .cls-18 {
        fill: #b27d59;
      }

      .cls-19 {
        fill: #8e8e8e;
      }

      .cls-20 {
        fill: #f2caad;
      }

      .cls-21 {
        fill: #fff;
      }

      .cls-22 {
        fill: #fcdcbe;
      }
    </style>
    <linearGradient id="linear-gradient" x1="552.56" y1="1406.34" x2="552.56" y2="804.5" gradientUnits="userSpaceOnUse">
      <stop offset="0" stop-color="#8e8e8e"/>
      <stop offset=".14" stop-color="#969696" stop-opacity=".92"/>
      <stop offset=".38" stop-color="#aeaeae" stop-opacity=".71"/>
      <stop offset=".69" stop-color="#d4d4d4" stop-opacity=".38"/>
      <stop offset="1" stop-color="#fff" stop-opacity="0"/>
    </linearGradient>
    <linearGradient id="linear-gradient-2" x1="240.69" y1="474.66" x2="833.39" y2="474.66" gradientUnits="userSpaceOnUse">
      <stop offset="0" stop-color="#b27d59"/>
      <stop offset=".02" stop-color="#ad7956"/>
      <stop offset=".1" stop-color="#97684a"/>
      <stop offset=".2" stop-color="#865b41"/>
      <stop offset=".33" stop-color="#7a523b"/>
      <stop offset=".51" stop-color="#734d37"/>
      <stop offset="1" stop-color="#724c37"/>
    </linearGradient>
    <linearGradient id="linear-gradient-3" x1="537.04" y1="805.32" x2="537.04" y2="144.07" gradientUnits="userSpaceOnUse">
      <stop offset="0" stop-color="#b27d59"/>
      <stop offset=".05" stop-color="#986a4b"/>
      <stop offset=".12" stop-color="#7e553c"/>
      <stop offset=".2" stop-color="#684530"/>
      <stop offset=".29" stop-color="#573827"/>
      <stop offset=".4" stop-color="#4b2f20"/>
      <stop offset=".56" stop-color="#442a1d"/>
      <stop offset="1" stop-color="#43291c"/>
    </linearGradient>
    <linearGradient id="linear-gradient-4" x1="367.01" y1="465.08" x2="789.28" y2="465.08" gradientUnits="userSpaceOnUse">
      <stop offset="0" stop-color="#e5ae89"/>
      <stop offset=".29" stop-color="#e9b794"/>
      <stop offset=".81" stop-color="#f6d1b1"/>
      <stop offset="1" stop-color="#fcdcbe"/>
    </linearGradient>
    <linearGradient id="linear-gradient-5" x1="544.29" y1="784.96" x2="544.29" y2="747.61" gradientUnits="userSpaceOnUse">
      <stop offset="0" stop-color="#fcdcbe"/>
      <stop offset=".38" stop-color="#ebbb9a"/>
      <stop offset="1" stop-color="#d18b64"/>
    </linearGradient>
    <linearGradient id="linear-gradient-6" x1="576.61" y1="672.02" x2="576.61" y2="197.94" xlink:href="#linear-gradient-3"/>
    <linearGradient id="linear-gradient-7" x1="787.37" y1="532.89" x2="817.88" y2="532.89" xlink:href="#linear-gradient-4"/>
    <linearGradient id="linear-gradient-8" x1="446.27" y1="544.16" x2="528.85" y2="512.46" xlink:href="#linear-gradient-4"/>
    <linearGradient id="linear-gradient-9" x1="480.73" y1="508.66" x2="495.03" y2="508.66" gradientUnits="userSpaceOnUse">
      <stop offset="0" stop-color="#aa6a52"/>
      <stop offset="1" stop-color="#b78665"/>
    </linearGradient>
    <linearGradient id="linear-gradient-10" x1="452.25" y1="556.85" x2="524.94" y2="556.85" xlink:href="#linear-gradient-9"/>
  </defs>
  <circle class="cls-15" cx="538.7" cy="540" r="540"/>
  <path class="cls-19" d="m221.97,1105.42c0,166.19,99.1,300.92,318.03,300.92s343.16-134.72,343.16-300.92-124.23-300.92-343.16-300.92-318.03,134.72-318.03,300.92Z"/>
  <path class="cls-2" d="m221.97,1105.42c0,166.19,99.1,300.92,318.03,300.92s343.16-134.72,343.16-300.92-124.23-300.92-343.16-300.92-318.03,134.72-318.03,300.92Z"/>
  <path class="cls-4" d="m520.4,146.69s-276.82-37.62-279.69,233.34,209.07,346.95,50,424.48c0,0,103.5.09,99.24-55.93,0,0,52.22,18.59-9.05,55.93,0,0,108.07,10.82,106.63-49.82,0,0,5.74,31.2,63.14,34.07s119.26-57.4,119.26-57.4c0,0-17.37,77.42,67.29,73.15,0,0-38.75-4.27,0-109.03,0,0,5.74,78.93,96.15,66.01,0,0-65.25-151.66-44.1-221.49s100.07-430.02-268.88-393.31Z"/>
  <path class="cls-5" d="m520.4,146.69s-276.82-37.62-279.69,233.34,209.07,346.95,50,424.48c0,0,96.74-3.37,92.48-59.4,0,0,58.98,22.05-2.29,59.4,0,0,88.94,10.81,87.5-49.82,0,0,25.27,47.7,82.67,50.57s128.48-84.29,128.48-84.29c0,0-26.99,87.82,57.68,83.55,0,0-32.02-23.37,6.72-128.13,0,0-.98,98.03,89.43,85.11,0,0-65.25-151.66-44.1-221.49s100.07-430.02-268.88-393.31Z"/>
  <path class="cls-22" d="m540,784.96c18.75,0,37.02-2.41,54.59-6.97l-.53,42.16h-96.28l-2.37-39.81c14.47,3.04,29.37,4.62,44.59,4.62Z"/>
  <path class="cls-22" d="m595.4,714.23l-.42,33.38c-17.69,4.63-36.09,7.07-54.98,7.07-15.86,0-31.37-1.72-46.41-5.01l-1.12-18.78,102.93-16.66Z"/>
  <g id="_ÖRA" data-name="ÖRA">
    <ellipse class="cls-22" cx="781.04" cy="531.67" rx="67.48" ry="75.29"/>
  </g>
  <g id="Ansikte">
    <path class="cls-22" d="m789.28,465.06c0,5.08-.11,10.13-.33,15.14-5.82,131.25-86.84,239.4-193.97,267.41-17.69,4.63-36.09,7.07-54.98,7.07-15.86,0-31.37-1.72-46.41-5.01-111.36-24.36-196.56-134.75-202.54-269.47-.22-5.01-.33-10.06-.33-15.14,0-159.95,111.6-289.62,249.28-289.62s249.28,129.67,249.28,289.62Z"/>
  </g>
  <path class="cls-3" d="m789.28,465.06c0,5.08-.11,10.13-.33,15.14-5.82,131.25-86.84,239.4-193.97,267.41-17.69,4.63-36.09,7.07-54.98,7.07-15.86,0-31.37-1.72-46.41-5.01-48.66-10.65-92.33-37.72-126.58-76.08,30.84,22.54,72.48,64.56,166.42,68.32,117.35,4.7,209.92-127.69,209.92-279.63,0-118.67-117.37-248.2-198.76-286.79,135.56,2.84,244.69,131.4,244.69,289.57Z"/>
  <path class="cls-8" d="m594.98,747.61l-.39,30.38c-17.57,4.56-35.84,6.97-54.59,6.97-15.22,0-30.12-1.58-44.59-4.62l-1.82-30.67c15.04,3.29,30.55,5.01,46.41,5.01,18.89,0,37.29-2.44,54.98-7.07Z"/>
  <path class="cls-14" d="m794.75,453.71l-102.27-180.89-139.14-38.85c-52.19,14.9-224.39,60.83-216.7,16.05,9-52.34,124.44-65.83,126.22-66.04h.02c41.49-11.71,91.03-25.21,98.99-25.21l102.92,16.67,34.86,54.21,78.36,77.85,16.74,146.21Z"/>
  <path class="cls-22" d="m605.29,808.57c4.32.56-15.04,43.45-61.35,43.43-57.52-.03-57.5-44.76-57.5-44.76l12.41-1.98s93.82,1.67,106.45,3.31Z"/>
  <path class="cls-9" d="m530.31,263.63c55.25-11.19,118.5-8.54,160.15,29.44,45.57,41.56,52.04,112.59,93.51,158.25,36.19,39.85,94.4,53.85,147.93,48.19-37.66-9.46-76.88-19.71-105.98-45.42-25.26-22.32-40.05-53.81-55.24-83.9-34.02-67.38-46.07-121.78-113.33-156.05-23.24-11.84-49.72-19.24-75.45-14.97-25.73,4.28-69.91,22.36-76.7,47.55-35.33-23.06-95.5-32.66-130.09-8.5s-55.04,65.3-59.98,107.2c-2.75,23.36-1.12,46.97-.41,70.48,1.43,47.37-1.02,95.42-14.85,140.75-13.83,45.33-39.88,88.03-78.59,115.38,20.89-9.57,38.01-25.85,52.85-43.4,48.13-56.92,75.89-130.71,77.22-205.23.38-21.36-1.32-42.95,2.64-63.95,6.55-34.76,29.27-66.12,60.25-83.17s64.57-6.18,97.44,6.9c4.53-1.73,14.12-16.74,18.65-18.48"/>
  <path class="cls-7" d="m817.88,496.77c-2.37,8.14-7.41,15.48-14.15,20.62-4.67,3.56-10.48,6.52-12.44,12.05-.95,2.68-.83,5.6-.79,8.44.15,10.45-.9,20.92-3.12,31.13,9.39-4.3,17.9-10.5,24.89-18.1"/>
  <circle class="cls-17" cx="780.52" cy="593.62" r="6.85"/>
  <circle class="cls-17" cx="801.6" cy="589.64" r="6.85"/>
  <path class="cls-6" d="m482.23,534.54s-53.05,38.36-14.34,30.67c0,0,3.1,26.58,33.55,6.36,0,0,17.85,12.2,31.12-29.39,7.38-23.15-34.56-102.57-39.03-59.4-3.22,31.11-11.31,51.76-11.31,51.76"/>
  <path class="cls-21" d="m452.74,472.09c-3.83-24.81-39.89-24.72-64.53-20.95-25.86,3.95-35.13,17.18-22.57,30.43,4.22,4.45,9.72,7.46,15.64,9.04,26.37,7.05,75.69,8.86,71.46-18.52Z"/>
  <path class="cls-21" d="m570.93,473.95c3.83-24.81,39.89-24.72,64.53-20.95,25.86,3.95,35.13,17.18,22.57,30.43-4.22,4.45-9.72,7.46-15.64,9.04-26.37,7.05-75.69,8.86-71.46-18.52Z"/>
  <circle class="cls-13" cx="624.57" cy="468.46" r="26.88"/>
  <path class="cls-20" d="m570.93,473.95c-7.82-41.01,101.25-61.42,92.65.75,0,0-41.59-24.38-92.65-.75Z"/>
  <circle class="cls-13" cx="416.16" cy="468.46" r="26.88"/>
  <path class="cls-20" d="m452.9,474.04s-.41-7-2.43-9.77c-12.18-17.4-34-30.68-55.62-30.23-20.57-.64-39.19,18.16-34.48,38.99,27.9-13.63,64.76-11.47,92.53,1Z"/>
  <path class="cls-18" d="m512.76,624.22c-13.04,9.02-14.28-14.77-44.49-5.56-3.34,1.02-15.02-4.24-18.9-2.14,0,0,63.39,51.28,126.78.12,0,0-13.26,4.48-23,2.5-12.42-2.52-23.55-6.08-32.67-2.26"/>
  <path class="cls-12" d="m553.9,431.61s79.73-46.61,139.17-29.52c0,0-16.97-21.73-59.44-17.08-42.46,4.65-92.11,30.58-92.11,30.58l12.38,16.03Z"/>
  <path class="cls-12" d="m478.58,434.09s-53.54-61.86-141.94-7.65c0,0,35.04-52.22,94.62-40.34,59.58,11.88,47.32,47.98,47.32,47.98Z"/>
  <path class="cls-16" d="m471.85,645.98c16.7,13.28,38.78,21.26,59.75,14.36,6.78-2.16,13.24-5.45,19.48-9.33-5.84,5.82-13.12,10.54-21.08,13.25-20.7,7.31-44.64-1.69-58.15-18.27h0Z"/>
  <path class="cls-14" d="m532.67,260.36c54.22,14.09,86.16,67.89,120.14,112.44,44.65,58.55,138.33,149.66,203.03,184.82-39.81-38.35-117.37-120.65-136.75-172.43,28.94,25.06,46.14,60.99,79.45,79.87-27.27-50.1-40.59-114.35-77.58-157.77-36.99-43.42-84.61-79.79-139.97-93.56-11.63-2.89-24.61-4.6-35.06,1.28-10.45,5.88-15.24,22.24-6.13,30.04"/>
  <path class="cls-14" d="m370.16,307.47c-18.74,10.71-25.09,34.08-36.52,52.4-13.84,22.17-36.02,37.69-52.91,57.64-44.74,52.86-46.96,128.48-46.97,197.74-25.05-54.81-33.43-121.92-2.78-173.81,31.81-53.86,63.45-81.46,93.67-136.22"/>
  <path class="cls-10" d="m504.88,262.69c-7.52-9.26-20.6-28.71-11.02-39.94,2.24-2.46,5.39-4,8.54-4.96,3.83-.98,7.78-1.48,11.73-1.34,15.46.65,29.88,7.27,43.65,13.8,21.68,10.85,41.94,24.19,61.26,38.75,21.53,16.53,42.19,34.46,59.69,55.28,5.81,6.92,11.21,14.28,15.54,22.21-8.61-12.35-19.19-22.96-30.06-33.23-32.31-29.99-103.42-83.86-145.97-92.02-5.51-.89-11.49-.85-16.85.8-17.27,5.86-2.88,30.78,3.51,40.66h0Z"/>
  <path class="cls-11" d="m496.09,158.77c-12.02,5.63-23.73,14.26-27.95,27.34-6.41,20.8,5.28,44.33,17.12,61.2,0,0,9.8,13.03,9.8,13.03,0,0-15.09-6.44-15.09-6.44-46.14-18.57-115.84-31.54-143.37,21.85-3.63,6.83-6.37,14.2-8.59,21.76,8.08-58.93,56.53-75.32,109.49-65.49,15.88,2.93,31.23,7.47,46.06,13.93,0,0-5.28,6.59-5.28,6.59-23.47-33.79-30.74-80.11,17.81-93.76h0Z"/>
  <path class="cls-23" d="m493.53,482.78c-3.22,31.11-11.31,51.76-11.31,51.76"/>
  <path class="cls-24" d="m482.23,534.54s-53.05,38.36-14.34,30.67c0,0,3.1,26.58,33.55,6.36,0,0,10.9,7.45,21.99-9.13"/>
  <path class="cls-12" d="m663.47,474.5c2.28-3.52,5.75-4.85,9.68-5.44,3.48-.89,7.29-1.71,10.83-2.29,0,0,.16.43.16.43-1.59.97-3.21,1.85-4.82,2.74-1.21.66-3.66,1.93-4.89,2.54-1.63.81-3.12,2-4.95,2.35-1.8.37-3.68.55-5.79.09l-.21-.41h0Z"/>
  <path class="cls-12" d="m361.51,472.52c-4.08.91-7.45-.34-10.74-2.43-3.21-1.6-6.64-3.43-9.71-5.28,0,0,.16-.43.16-.43,1.84.29,3.64.66,5.45,1.03,1.35.28,4.04.91,5.37,1.26,2.76.49,5.5,1.1,7.62,3.11.74.65,1.44,1.34,2.05,2.33l-.21.41h0Z"/>
  <circle class="cls-1" cx="538.7" cy="540" r="540"/>
</svg>