<?xml version="1.0" encoding="UTF-8"?>
<svg id="Layer_1" data-name="Layer 1" xmlns="http://www.w3.org/2000/svg" xmlns:xlink="http://www.w3.org/1999/xlink" viewBox="0 0 1920 1080">
  <defs>
    <style>
      .cls-1 {
        fill: url(#linear-gradient-31);
        opacity: .5;
      }

      .cls-1, .cls-2, .cls-3, .cls-4, .cls-5, .cls-6, .cls-7, .cls-8, .cls-9, .cls-10, .cls-11, .cls-12, .cls-13, .cls-14, .cls-15, .cls-16, .cls-17, .cls-18, .cls-19, .cls-20, .cls-21, .cls-22, .cls-23, .cls-24, .cls-25, .cls-26, .cls-27, .cls-28, .cls-29, .cls-30, .cls-31, .cls-32, .cls-33, .cls-34, .cls-35, .cls-36, .cls-37, .cls-38, .cls-39, .cls-40, .cls-41 {
        stroke-width: 0px;
      }

      .cls-2 {
        fill: url(#linear-gradient);
      }

      .cls-42 {
        stroke: url(#linear-gradient-9);
      }

      .cls-42, .cls-43, .cls-44, .cls-45, .cls-46, .cls-47, .cls-48, .cls-49 {
        stroke-miterlimit: 10;
      }

      .cls-42, .cls-43, .cls-44, .cls-47, .cls-48, .cls-49 {
        fill: none;
      }

      .cls-42, .cls-47, .cls-48, .cls-49 {
        stroke-width: 3.8484848003px;
      }

      .cls-3 {
        fill: url(#linear-gradient-19);
      }

      .cls-3, .cls-4, .cls-5, .cls-23 {
        opacity: .4;
      }

      .cls-4 {
        fill: url(#linear-gradient-21);
      }

      .cls-5 {
        fill: url(#linear-gradient-20);
      }

      .cls-6 {
        fill: url(#linear-gradient-33);
      }

      .cls-7 {
        fill: url(#linear-gradient-32);
      }

      .cls-8 {
        fill: url(#linear-gradient-34);
      }

      .cls-9 {
        fill: url(#linear-gradient-28);
      }

      .cls-10 {
        fill: url(#linear-gradient-25);
      }

      .cls-11 {
        fill: url(#linear-gradient-23);
      }

      .cls-12 {
        fill: url(#linear-gradient-18);
      }

      .cls-13 {
        fill: url(#linear-gradient-14);
      }

      .cls-14 {
        fill: url(#linear-gradient-22);
      }

      .cls-15 {
        fill: url(#linear-gradient-27);
      }

      .cls-16 {
        fill: url(#linear-gradient-24);
      }

      .cls-17 {
        fill: url(#linear-gradient-26);
      }

      .cls-18 {
        fill: url(#linear-gradient-8);
      }

      .cls-18, .cls-19, .cls-20, .cls-21, .cls-22, .cls-50, .cls-24, .cls-25, .cls-26, .cls-27, .cls-28, .cls-29, .cls-30, .cls-31, .cls-32, .cls-33 {
        opacity: .3;
      }

      .cls-19 {
        fill: url(#linear-gradient-3);
      }

      .cls-20 {
        fill: url(#linear-gradient-7);
      }

      .cls-21 {
        fill: url(#linear-gradient-4);
      }

      .cls-22 {
        fill: url(#linear-gradient-2);
      }

      .cls-23, .cls-24 {
        fill: #a3c0e5;
      }

      .cls-43 {
        stroke: #cddaf0;
      }

      .cls-43, .cls-45, .cls-46 {
        stroke-width: 7.6969696006px;
      }

      .cls-44 {
        stroke-width: 1.9242424001px;
      }

      .cls-44, .cls-47 {
        stroke: #d6e3f3;
        stroke-linecap: round;
      }

      .cls-45 {
        fill: url(#linear-gradient-5);
      }

      .cls-45, .cls-46, .cls-48 {
        stroke: #cfdef1;
      }

      .cls-46 {
        fill: url(#linear-gradient-6);
      }

      .cls-49 {
        stroke: #e8f0fa;
      }

      .cls-25 {
        fill: url(#linear-gradient-29);
      }

      .cls-26 {
        fill: url(#linear-gradient-30);
      }

      .cls-27 {
        fill: url(#linear-gradient-12);
      }

      .cls-28 {
        fill: url(#linear-gradient-10);
      }

      .cls-29 {
        fill: url(#linear-gradient-13);
      }

      .cls-30 {
        fill: url(#linear-gradient-11);
      }

      .cls-31 {
        fill: url(#linear-gradient-16);
      }

      .cls-32 {
        fill: url(#linear-gradient-15);
      }

      .cls-33 {
        fill: url(#linear-gradient-17);
      }

      .cls-34 {
        fill: #f7fbff;
      }

      .cls-35 {
        fill: #f8fbfe;
      }

      .cls-36 {
        fill: #c9daef;
      }

      .cls-37 {
        fill: #d9e5f4;
      }

      .cls-38 {
        fill: #cddaf0;
      }

      .cls-39 {
        fill: #c1d4ed;
      }

      .cls-40 {
        fill: #fff;
      }

      .cls-41 {
        fill: #e8f0fa;
      }
    </style>
    <linearGradient id="linear-gradient" x1="960" y1="1080" x2="960" y2="0" gradientUnits="userSpaceOnUse">
      <stop offset="0" stop-color="#f8fbfe" stop-opacity="0"/>
      <stop offset=".0713456549" stop-color="#f8fbfe" stop-opacity=".1705144035"/>
      <stop offset=".1635950946" stop-color="#f8fbfe" stop-opacity=".3631356229"/>
      <stop offset=".2608610076" stop-color="#f8fbfe" stop-opacity=".5339413535"/>
      <stop offset=".3614219207" stop-color="#f8fbfe" stop-opacity=".6778726734"/>
      <stop offset=".4661938926" stop-color="#f8fbfe" stop-opacity=".7951431092"/>
      <stop offset=".5764439659" stop-color="#f8fbfe" stop-opacity=".8857947628"/>
      <stop offset=".6946994723" stop-color="#f8fbfe" stop-opacity=".950045737"/>
      <stop offset=".8266016313" stop-color="#f8fbfe" stop-opacity=".988031208"/>
      <stop offset="1" stop-color="#f8fbfe"/>
    </linearGradient>
    <linearGradient id="linear-gradient-2" x1="621.2521557417" y1="1100.092094398" x2="621.2521557417" y2="818.7371342263" gradientUnits="userSpaceOnUse">
      <stop offset="0" stop-color="#f8fbfe" stop-opacity="0"/>
      <stop offset=".0440550316" stop-color="#eef4fb" stop-opacity=".113221626"/>
      <stop offset=".1343469483" stop-color="#dce8f6" stop-opacity=".3193906426"/>
      <stop offset=".2301116656" stop-color="#cdddf1" stop-opacity=".5021413051"/>
      <stop offset=".329870716" stop-color="#c0d4ed" stop-opacity=".656149189"/>
      <stop offset=".4345987314" stop-color="#b5ccea" stop-opacity=".7814540518"/>
      <stop offset=".5461437418" stop-color="#adc7e8" stop-opacity=".8783782637"/>
      <stop offset=".6675096611" stop-color="#a7c3e6" stop-opacity=".9469605957"/>
      <stop offset=".806079327" stop-color="#a4c0e5" stop-opacity=".9874074321"/>
      <stop offset="1" stop-color="#a3c0e5"/>
    </linearGradient>
    <linearGradient id="linear-gradient-3" x1="1349.5540611447" y1="1054.8732467672" x2="1349.5540611447" y2="850.6049121192" xlink:href="#linear-gradient-2"/>
    <linearGradient id="linear-gradient-4" x1="1684.3340941636" y1="1079.3430058384" x2="1684.3340941636" y2="779.0644270746" xlink:href="#linear-gradient-2"/>
    <linearGradient id="linear-gradient-5" x1="1642.2656770939" y1="767.4609982527" x2="1642.2656770939" y2="767.4609982527" xlink:href="#linear-gradient-2"/>
    <linearGradient id="linear-gradient-6" x1="1577.8264530899" y1="767.4609982527" x2="1577.8264530899" y2="767.4609982527" xlink:href="#linear-gradient-2"/>
    <linearGradient id="linear-gradient-7" x1="278.2868081248" y1="1044.5201262815" x2="278.2868081248" y2="576.3618749652" gradientUnits="userSpaceOnUse">
      <stop offset="0" stop-color="#f8fbfe" stop-opacity="0"/>
      <stop offset=".1030217781" stop-color="#e6eef8" stop-opacity=".2113713154"/>
      <stop offset=".2200322175" stop-color="#d4e2f3" stop-opacity=".4188498496"/>
      <stop offset=".3407628263" stop-color="#c5d7ef" stop-opacity=".5974913872"/>
      <stop offset=".4634247317" stop-color="#b8cfeb" stop-opacity=".7432587763"/>
      <stop offset=".5885228823" stop-color="#afc8e8" stop-opacity=".8562176139"/>
      <stop offset=".7170454267" stop-color="#a8c3e6" stop-opacity=".9365380599"/>
      <stop offset=".8511802172" stop-color="#a4c0e5" stop-opacity=".9844031598"/>
      <stop offset="1" stop-color="#a3c0e5"/>
    </linearGradient>
    <linearGradient id="linear-gradient-8" x1="229.3804915426" y1="763.7162546242" x2="229.3804915426" y2="576.3618749652" xlink:href="#linear-gradient-2"/>
    <linearGradient id="linear-gradient-9" x1="291.7848566751" y1="1026.6676750539" x2="291.7848566751" y2="576.677285076" gradientUnits="userSpaceOnUse">
      <stop offset="0" stop-color="#f8fbfe" stop-opacity="0"/>
      <stop offset=".0749604058" stop-color="#f4f8fd" stop-opacity=".1876361911"/>
      <stop offset=".1622619348" stop-color="#f1f6fc" stop-opacity=".3763628959"/>
      <stop offset=".2550013708" stop-color="#eff5fb" stop-opacity=".543918579"/>
      <stop offset=".3515004614" stop-color="#edf3fb" stop-opacity=".6849579058"/>
      <stop offset=".4529070936" stop-color="#ebf2fa" stop-opacity=".7998219019"/>
      <stop offset=".5607940455" stop-color="#e9f1fa" stop-opacity=".8885688597"/>
      <stop offset=".6782520226" stop-color="#e8f0fa" stop-opacity=".9514086365"/>
      <stop offset=".8123486333" stop-color="#e8f0fa" stop-opacity=".9884641318"/>
      <stop offset="1" stop-color="#e8f0fa"/>
    </linearGradient>
    <linearGradient id="linear-gradient-10" x1="1073.2256106998" y1="1090.3309071568" x2="1073.2256106998" y2="775.2288837693" gradientUnits="userSpaceOnUse">
      <stop offset="0" stop-color="#f8fbfe" stop-opacity="0"/>
      <stop offset=".0174046112" stop-color="#f4f8fd" stop-opacity=".0309420034"/>
      <stop offset=".1423911136" stop-color="#dfe9f6" stop-opacity=".2334762109"/>
      <stop offset=".2718544168" stop-color="#ccdcf1" stop-opacity=".4077613018"/>
      <stop offset=".4040409594" stop-color="#bdd2ec" stop-opacity=".5499120267"/>
      <stop offset=".5397450864" stop-color="#b1cae9" stop-opacity=".6600461984"/>
      <stop offset=".6804724995" stop-color="#a9c4e6" stop-opacity=".7383516089"/>
      <stop offset=".8293064845" stop-color="#a4c1e5" stop-opacity=".784927197"/>
      <stop offset="1" stop-color="#a3c0e5" stop-opacity=".8000000119"/>
    </linearGradient>
    <linearGradient id="linear-gradient-11" x1="1018.2128659738" y1="1091.3699672267" x2="1018.2128659738" y2="775.228884137" gradientTransform="translate(1864.9872556648) rotate(-180) scale(1 -1)" xlink:href="#linear-gradient-10"/>
    <linearGradient id="linear-gradient-12" x1="713.0750016887" y1="990.2186714711" x2="713.0750016887" y2="883.6648674625" gradientUnits="userSpaceOnUse">
      <stop offset="0" stop-color="#e8f0fa" stop-opacity=".200000003"/>
      <stop offset=".0496302397" stop-color="#dfeaf7" stop-opacity=".2999180375"/>
      <stop offset=".1547211279" stop-color="#cfdef2" stop-opacity=".4850502374"/>
      <stop offset=".2659213343" stop-color="#c1d5ee" stop-opacity=".6441919525"/>
      <stop offset=".3823981551" stop-color="#b6cdea" stop-opacity=".7737650673"/>
      <stop offset=".5059881327" stop-color="#adc7e8" stop-opacity=".8739889712"/>
      <stop offset=".6399052456" stop-color="#a7c3e6" stop-opacity=".9449818417"/>
      <stop offset=".791720131" stop-color="#a4c0e5" stop-opacity=".986897996"/>
      <stop offset="1" stop-color="#a3c0e5"/>
    </linearGradient>
    <linearGradient id="linear-gradient-13" x1="705.2478630173" y1="997.13048006" x2="705.2478630173" y2="854.6310319517" xlink:href="#linear-gradient-12"/>
    <linearGradient id="linear-gradient-14" x1="704.3593032237" y1="1059.2715191741" x2="704.3593032237" y2="951.4881329437" gradientUnits="userSpaceOnUse">
      <stop offset="0" stop-color="#f8fbfe" stop-opacity="0"/>
      <stop offset=".0101104342" stop-color="#f4f8fd" stop-opacity=".0359433997"/>
      <stop offset=".07205307" stop-color="#e3edf8" stop-opacity=".2361439632"/>
      <stop offset=".1398463257" stop-color="#d4e2f3" stop-opacity=".4187952379"/>
      <stop offset=".2119635074" stop-color="#c7d9ef" stop-opacity=".5760270842"/>
      <stop offset=".2895854331" stop-color="#bbd1ec" stop-opacity=".7081803895"/>
      <stop offset=".3744523266" stop-color="#b2cae9" stop-opacity=".8154614323"/>
      <stop offset=".469546337" stop-color="#abc6e7" stop-opacity=".8981121974"/>
      <stop offset=".5805846718" stop-color="#a6c2e6" stop-opacity=".9562794744"/>
      <stop offset=".7223417663" stop-color="#a3c0e5" stop-opacity=".9901051788"/>
      <stop offset="1" stop-color="#a3c0e5"/>
    </linearGradient>
    <linearGradient id="linear-gradient-15" x1="405.7595071723" y1="1002.7774942108" x2="405.7595071723" y2="862.291248036" xlink:href="#linear-gradient-12"/>
    <linearGradient id="linear-gradient-16" x1="630.3908176073" y1="1225.555423477" x2="630.3908176073" y2="1130.2894660408" gradientTransform="translate(190.1448135477 -364.11195878) rotate(18.2587339665)" xlink:href="#linear-gradient-12"/>
    <linearGradient id="linear-gradient-17" x1="209.2521429631" y1="469.0667921781" x2="209.2521429631" y2="429.5739847173" gradientTransform="translate(-32.2318785564 716.8696065966) rotate(-32.2710338292)" xlink:href="#linear-gradient-12"/>
    <linearGradient id="linear-gradient-18" x1="405.0763397217" y1="1077.9287457366" x2="405.0763397217" y2="947.3338360687" xlink:href="#linear-gradient-14"/>
    <linearGradient id="linear-gradient-19" x1="1143.4842124371" y1="1032.2124690562" x2="1143.4842124371" y2="955.2427730504" xlink:href="#linear-gradient-12"/>
    <linearGradient id="linear-gradient-20" x1="1495.9020272716" y1="1033.7951204955" x2="1495.9020272716" y2="977.9920908913" xlink:href="#linear-gradient-12"/>
    <linearGradient id="linear-gradient-21" x1="1421.1259957891" y1="1030.3155318896" x2="1421.1259957891" y2="966.9691526226" xlink:href="#linear-gradient-12"/>
    <linearGradient id="linear-gradient-22" x1="1125.5018920898" y1="1056.9119917367" x2="1125.5018920898" y2="1005.8264204476" gradientUnits="userSpaceOnUse">
      <stop offset="0" stop-color="#f8fbfe" stop-opacity="0"/>
      <stop offset=".0188502323" stop-color="#f1f6fc" stop-opacity=".0730856663"/>
      <stop offset=".0745110745" stop-color="#e1ebf7" stop-opacity=".2656802715"/>
      <stop offset=".1359136884" stop-color="#d2e0f2" stop-opacity=".4415507956"/>
      <stop offset=".2018083225" stop-color="#c5d8ef" stop-opacity=".5930003632"/>
      <stop offset=".2733390047" stop-color="#bad0eb" stop-opacity=".7201160485"/>
      <stop offset=".3525230765" stop-color="#b2cae9" stop-opacity=".8233375621"/>
      <stop offset=".4424513883" stop-color="#abc5e7" stop-opacity=".9026914478"/>
      <stop offset=".549579918" stop-color="#a6c2e6" stop-opacity=".9584477974"/>
      <stop offset=".6908456409" stop-color="#a3c0e5" stop-opacity=".9907366076"/>
      <stop offset="1" stop-color="#a3c0e5"/>
    </linearGradient>
    <linearGradient id="linear-gradient-23" x1="1149.226020874" y1="1054.246987255" x2="1162.619153868" y2="1014.3988079757" xlink:href="#linear-gradient-22"/>
    <linearGradient id="linear-gradient-24" x1="1405.7345581055" y1="1055.1018435408" x2="1405.7345581055" y2="1006.9202085413" xlink:href="#linear-gradient-22"/>
    <linearGradient id="linear-gradient-25" x1="1438.3662109375" y1="1053.2430080067" x2="1438.3662109375" y2="1008.4479033339" gradientUnits="userSpaceOnUse">
      <stop offset="0" stop-color="#f8fbfe" stop-opacity="0"/>
      <stop offset=".0187767318" stop-color="#f1f6fc" stop-opacity=".0727304075"/>
      <stop offset=".0744972358" stop-color="#e1ebf7" stop-opacity=".2653831441"/>
      <stop offset=".135960724" stop-color="#d2e0f2" stop-opacity=".4413083883"/>
      <stop offset=".2019208962" stop-color="#c5d8ef" stop-opacity=".592820284"/>
      <stop offset=".2735161703" stop-color="#bad0ec" stop-opacity=".7199897457"/>
      <stop offset=".3527624005" stop-color="#b2cae9" stop-opacity=".8232556021"/>
      <stop offset=".4427474001" stop-color="#abc5e7" stop-opacity=".902644026"/>
      <stop offset=".5499208419" stop-color="#a6c2e6" stop-opacity=".958425478"/>
      <stop offset=".691197332" stop-color="#a3c0e5" stop-opacity=".9907301608"/>
      <stop offset="1" stop-color="#a3c0e5"/>
    </linearGradient>
    <linearGradient id="linear-gradient-26" x1="1416.9045544385" y1="1014.7427364531" x2="1435.4526563677" y2="1016.6908901783" xlink:href="#linear-gradient-14"/>
    <linearGradient id="linear-gradient-27" x1="1489.5190429687" y1="1051.1383104713" x2="1489.5190429687" y2="1007.4443389185" gradientUnits="userSpaceOnUse">
      <stop offset="0" stop-color="#f8fbfe" stop-opacity="0"/>
      <stop offset=".0271005065" stop-color="#edf3fa" stop-opacity=".120763339"/>
      <stop offset=".0742729783" stop-color="#dee9f6" stop-opacity=".3033845139"/>
      <stop offset=".1270743309" stop-color="#cfdff2" stop-opacity=".4709281356"/>
      <stop offset=".1842792473" stop-color="#c3d6ee" stop-opacity=".6148532761"/>
      <stop offset=".2472248442" stop-color="#b9cfeb" stop-opacity=".7356054903"/>
      <stop offset=".3179268937" stop-color="#b1c9e9" stop-opacity=".8334288614"/>
      <stop offset=".3999670995" stop-color="#aac5e7" stop-opacity=".9086126341"/>
      <stop offset=".5004018664" stop-color="#a6c2e5" stop-opacity=".9612543245"/>
      <stop offset=".6391009559" stop-color="#a3c0e5" stop-opacity=".9915545365"/>
      <stop offset="1" stop-color="#a3c0e5"/>
    </linearGradient>
    <linearGradient id="linear-gradient-28" x1="1506.4810180664" y1="1020.1436926278" x2="1506.4810180664" y2="1030.2367976059" xlink:href="#linear-gradient-14"/>
    <linearGradient id="linear-gradient-29" x1="506.1605053291" y1="968.5062509349" x2="506.1605053291" y2="1021.503689439" gradientUnits="userSpaceOnUse">
      <stop offset="0" stop-color="#e8f0fa" stop-opacity=".200000003"/>
      <stop offset=".1807044173" stop-color="#dde8f6" stop-opacity=".3204235709"/>
      <stop offset=".569707347" stop-color="#c2d6ee" stop-opacity=".6291886306"/>
      <stop offset="1" stop-color="#a3c0e5"/>
    </linearGradient>
    <linearGradient id="linear-gradient-30" x1="561.5944712224" y1="964.7980181045" x2="561.5944712224" y2="1020.016752114" xlink:href="#linear-gradient-29"/>
    <linearGradient id="linear-gradient-31" x1="1745.0400298515" y1="1028.4730088462" x2="1745.0400298515" y2="919.511802151" xlink:href="#linear-gradient-12"/>
    <linearGradient id="linear-gradient-32" x1="1742.3983764648" y1="1066.2837262054" x2="1742.3983764648" y2="982.5388531585" xlink:href="#linear-gradient-27"/>
    <linearGradient id="linear-gradient-33" x1="1737.0267944336" y1="1015.9082379241" x2="1737.0267944336" y2="1001.0942758616" xlink:href="#linear-gradient-14"/>
    <linearGradient id="linear-gradient-34" x1="1741.6275634766" y1="1000.5365338226" x2="1754.3700372798" y2="1000.5365338226" xlink:href="#linear-gradient-14"/>
  </defs>
  <rect class="cls-34" x="0" y="4.1835670408" width="1920" height="1075.8164329592"/>
  <rect class="cls-41" x="0" width="1920" height="1080"/>
  <rect class="cls-2" x="0" width="1920" height="1080"/>
  <path class="cls-41" d="m1696.9798583984,112.1839642425c-22.1062539673-13.5223227236-48.5281075637-21.515734797-66.7396602558,1.9657687599-.5512706162.6143633132-1.2696423824,1.5471839242-1.7228328178,2.2270354523-1.7004901899,2.2092051978-3.2056949951,4.848358248-4.6780810511,7.1983893526-1.5723456564,2.9762922772-5.0376556317,9.3978357233-6.6360453743,12.4133270889-2.1990029554-2.3311988217-6.5141550538-7.1495639893-8.7906336757-9.2689627315-9.7524079532-9.0975018582-23.4232720082-18.023762146-37.1325869884-13.0654924998-9.4988432841,3.5722867994-15.9288242927,11.3378340606-22.0193678254,19.5715005228,2.0834658011-6.7129984403,5.2779238089-13.226838162,10.1871034964-18.8330698514,11.498833524-13.2467716519,28.0920691812-13.5047372491,42.8111535234-5.6919217417,6.7393050036,3.5854669339,12.7511278866,8.1740230214,17.9689224959,13.7141907-.0000467224.0000546501-9.4364480895,1.2916806267-9.4364480895,1.2916806267,7.852611006-16.4909716511,21.1343222403-31.7727837231,40.4661869165-33.3300915933,17.6907748581-1.2790170488,34.5985216546,8.7108950667,45.722289646,21.8076459146h0Z"/>
  <path class="cls-41" d="m1599.8493652344,220.3335308929c-14.4610447164-7.240988965-30.8508889668-12.1608346354-41.9124088177,2.5500634318-2.1816013487,2.6414162508-4.0830952698,6.0503616041-5.6926925724,9.0869080716-.000001149-.0000086128-3.9271251724,7.2802343071-3.9271251724,7.2802343071-.6326769304-.6803849988-5.9220809063-6.4619029244-6.4147879554-6.9464544746-3.7111742578-3.7577191653-8.0946977628-7.2746862678-12.9875222107-9.2056985672-10.2090171491-4.4380575734-18.8660722089,3.3170644408-25.227484255,10.9328839596,1.523287672-6.9240119593,5.3249231334-14.2256011445,11.8561902515-18.0802650229,11.8729125122-7.0585133265,26.3237918289.1189384917,35.0837142449,8.9225392261.2437229325.2500722716.4372043778.4459035704.7542209794.794597418,0,0-9.4364013672,1.2916259766-9.4364013672,1.2916259766,3.9474992558-8.2488376698,9.8964504228-16.2164311423,18.4700296845-20.0848225095,14.2059369714-6.68971789,31.0103460194,1.3906116539,39.4342671905,13.4583881833h0Z"/>
  <rect class="cls-41" x="1329.8219738154" y="778.8847256758" width="345.2714344133" height="300.4582801626"/>
  <rect class="cls-35" x="1367.7719416434" y="812.5568206429" width="10.2815629952" height="25.4223757066"/>
  <rect class="cls-35" x="1392.5075538226" y="812.5568206429" width="10.2815629952" height="25.4223757066"/>
  <rect class="cls-35" x="1417.2431660019" y="812.5568206429" width="10.2815629952" height="25.4223757066"/>
  <rect class="cls-35" x="1441.9787781811" y="812.5568206429" width="10.2815629952" height="25.4223757066"/>
  <rect class="cls-35" x="1466.7143903603" y="812.5568206429" width="10.2815629952" height="25.4223757066"/>
  <rect class="cls-35" x="1514.2263120178" y="812.5568206429" width="10.2815629952" height="25.4223757066"/>
  <rect class="cls-35" x="1538.9619241971" y="812.5568206429" width="10.2815629952" height="25.4223757066"/>
  <rect class="cls-35" x="1563.6975363763" y="812.5568206429" width="10.2815629952" height="25.4223757066"/>
  <rect class="cls-35" x="1588.4331485556" y="812.5568206429" width="10.2815629952" height="25.4223757066"/>
  <rect class="cls-35" x="1613.1687607348" y="812.5568206429" width="10.2815629952" height="25.4223757066"/>
  <polygon class="cls-22" points="612.0114698069 818.7371342263 630.4928416766 829.9358553237 630.4928416766 1100.092094398 612.0114698069 1100.092094398 612.0114698069 818.7371342263"/>
  <g>
    <rect class="cls-41" x="1178.8435075142" y="842.808098658" width="161.4698676956" height="237.191901342"/>
    <rect class="cls-35" x="1203.7060747588" y="864.8552435642" width="10.2815629952" height="25.4223757066"/>
    <rect class="cls-35" x="1228.4416869381" y="864.8552435642" width="10.2815629952" height="25.4223757066"/>
    <rect class="cls-35" x="1253.1772991173" y="864.8552435642" width="10.2815629952" height="25.4223757066"/>
    <rect class="cls-35" x="1277.9129112966" y="864.8552435642" width="10.2815629952" height="25.4223757066"/>
    <rect class="cls-35" x="1302.6485234758" y="864.8552435642" width="10.2815629952" height="25.4223757066"/>
    <rect class="cls-35" x="1203.7060747588" y="908.4788710975" width="10.2815629952" height="25.4223757066"/>
    <rect class="cls-35" x="1228.4416869381" y="908.4788710975" width="10.2815629952" height="25.4223757066"/>
    <rect class="cls-35" x="1253.1772991173" y="908.4788710975" width="10.2815629952" height="25.4223757066"/>
    <rect class="cls-35" x="1277.9129112966" y="908.4788710975" width="10.2815629952" height="25.4223757066"/>
    <rect class="cls-35" x="1302.6485234758" y="908.4788710975" width="10.2815629952" height="25.4223757066"/>
    <polygon class="cls-19" points="1340.3133752098 850.6049121192 1358.7947470795 858.7353680649 1358.7947470795 1054.8732467672 1340.3133752098 1054.8732467672 1340.3133752098 850.6049121192"/>
  </g>
  <polygon class="cls-21" points="1675.0934082287 779.0644270746 1693.5747800984 785.8800303527 1693.5747800984 1079.3430058384 1675.0934082287 1079.3430058384 1675.0934082287 779.0644270746"/>
  <line class="cls-45" x1="1642.2656770939" y1="779.0644270746" x2="1642.2656770939" y2="755.8575694308"/>
  <line class="cls-46" x1="1577.8264530899" y1="779.0644270746" x2="1577.8264530899" y2="755.8575694308"/>
  <rect class="cls-43" x="1577.8264530899" y="704.4781752566" width="64.439224004" height="47.5225984612"/>
  <ellipse class="cls-48" cx="1623.6591467413" cy="729.9995707266" rx="10.4903860064" ry="6.6003608974"/>
  <ellipse class="cls-48" cx="1596.377655032" cy="729.9995707266" rx="10.4903860064" ry="6.6003608974"/>
  <path class="cls-48" d="m1634.1495327477,719.8085177828c0-3.6452786668-4.6967057956-6.6003608974-10.4903860065-6.6003608974s-10.4903860064,2.9550822306-10.4903860064,6.6003608974"/>
  <path class="cls-48" d="m1606.8680410385,719.8085177828c0-3.6452786668-4.6967057956-6.6003608974-10.4903860064-6.6003608974s-10.4903860065,2.9550822306-10.4903860065,6.6003608974"/>
  <circle class="cls-38" cx="1596.5089788799" cy="729.9995707266" r="3.5906920464"/>
  <circle class="cls-38" cx="1623.45032373" cy="729.9995707266" r="3.5906920464"/>
  <g>
    <g>
      <polygon class="cls-41" points="347.5517921449 1044.5201262815 209.0218241048 1044.5201262815 231.3293668178 763.7162546242 246.9745037149 576.3618749652 347.5517921449 576.3618749652 328.6348237063 695.7614762391 347.5517921449 1044.5201262815"/>
      <path class="cls-20" d="m347.5517921449,576.3618749652s-86.8330853982,353.7908408264-138.5299680402,468.1582513163h138.5299680402l-18.9169684387-348.7586500424,18.9169684387-119.3996012739Z"/>
      <path class="cls-18" d="m231.3293668178,763.7162546242s15.6451368971-181.6466810845,15.6451368971-187.3543796589l-35.1880243445,23.2195447693,19.5428874474,164.1348348896Z"/>
    </g>
    <path class="cls-42" d="m218.728250301,1013.1278746718c48.227094983-106.1513985523,129.2321235872-434.5263472185,129.2321235872-434.5263472185h16.0833745851l-127.6128109804,447.5384936929"/>
    <line class="cls-49" x1="360.0611932059" y1="592.5683601853" x2="345.3927139786" y2="592.5683601853"/>
    <line class="cls-49" x1="356.2476944714" y1="606.08072891" x2="341.5792152442" y2="606.08072891"/>
    <line class="cls-49" x1="352.7269535922" y1="619.5930976348" x2="338.058474365" y2="619.5930976348"/>
    <line class="cls-49" x1="349.9727600618" y1="633.1054663595" x2="335.3042808345" y2="633.1054663595"/>
    <line class="cls-49" x1="347.2185665314" y1="646.6178350842" x2="332.5500873041" y2="646.6178350842"/>
    <line class="cls-49" x1="342.6385204482" y1="660.130203809" x2="327.9700412209" y2="660.130203809"/>
    <line class="cls-49" x1="339.8843269177" y1="673.6425725337" x2="325.2158476905" y2="673.6425725337"/>
    <line class="cls-49" x1="333.3755331987" y1="687.1549412584" x2="318.7070539714" y2="687.1549412584"/>
    <line class="cls-49" x1="330.088871274" y1="700.6673099832" x2="315.4203920467" y2="700.6673099832"/>
    <line class="cls-49" x1="324.5804842132" y1="714.1796787079" x2="309.9120049859" y2="714.1796787079"/>
    <line class="cls-49" x1="320.0004381299" y1="727.6920474326" x2="305.3319589027" y2="727.6920474326"/>
    <line class="cls-49" x1="317.2462445995" y1="741.2044161574" x2="302.5777653722" y2="741.2044161574"/>
    <line class="cls-49" x1="314.4920510691" y1="754.7167848821" x2="299.8235718418" y2="754.7167848821"/>
    <line class="cls-49" x1="311.7378575387" y1="768.2291536068" x2="297.0693783114" y2="768.2291536068"/>
    <line class="cls-49" x1="305.3319589027" y1="781.7415223315" x2="294.315184781" y2="781.7415223315"/>
    <line class="cls-49" x1="302.5777653722" y1="795.2538910562" x2="291.5609912506" y2="795.2538910562"/>
    <line class="cls-49" x1="298.5906197914" y1="808.766259781" x2="287.5738456697" y2="808.766259781"/>
    <line class="cls-49" x1="294.6451732298" y1="822.2786285057" x2="283.6283991081" y2="822.2786285057"/>
    <line class="cls-49" x1="289.136786169" y1="835.7909972304" x2="278.1200120473" y2="835.7909972304"/>
    <line class="cls-49" x1="285.6845204277" y1="849.3033659552" x2="274.667746306" y2="849.3033659552"/>
    <line class="cls-49" x1="281.7390738662" y1="862.8157346799" x2="270.7222997445" y2="862.8157346799"/>
    <line class="cls-49" x1="278.2868081248" y1="876.3281034047" x2="267.2700340031" y2="876.3281034047"/>
    <line class="cls-49" x1="274.667746306" y1="889.8404721294" x2="263.6509721843" y2="889.8404721294"/>
    <line class="cls-49" x1="269.8193361429" y1="903.3528408541" x2="258.8025620212" y2="903.3528408541"/>
    <line class="cls-49" x1="265.6272991712" y1="916.8652095788" x2="254.6105250496" y2="916.8652095788"/>
    <line class="cls-49" x1="261.1886717895" y1="930.3775783036" x2="250.1718976679" y2="930.3775783036"/>
    <line class="cls-49" x1="255.6802847287" y1="943.8899470283" x2="244.663510607" y2="943.8899470283"/>
  </g>
  <g>
    <rect class="cls-41" x="904.8611868047" y="775.2288837693" width="109.6422491431" height="304.7711162307"/>
    <polygon class="cls-28" points="1014.5034359489 775.2288837693 1131.9477854507 798.4131678856 1131.9477854507 1090.3309071568 1014.5034359489 1076.0568121785 1014.5034359489 775.2288837693"/>
    <g>
      <path class="cls-40" d="m984.4380194176,828.8199830145v21.320756125h-22.5525343412v-25.0921960636c7.6203945246.1540897234,15.1632744017,1.4624430155,22.5525343412,3.7714399386Z"/>
      <path class="cls-40" d="m958.0370002761,825.0485430759v25.0921960636h-22.4750196937v-21.320756125c7.3892599394-2.308996923,14.9321398166-3.6173502151,22.4750196937-3.7714399386Z"/>
      <rect class="cls-40" x="935.5619805824" y="853.9892239399" width="22.4750196937" height="38.2537134177"/>
      <rect class="cls-40" x="961.8854850764" y="853.9892239399" width="22.5525343412" height="38.2537134177"/>
    </g>
    <rect class="cls-40" x="904.8611868047" y="785.6378585038" width="109.6422491442" height="14.4915248745"/>
    <rect class="cls-41" x="907.1179950938" y="787.1888436537" width="11.2344197174" height="11.2344197174" transform="translate(827.9324887061 -413.1937359415) rotate(44.9999999999)"/>
    <rect class="cls-41" x="922.7553784877" y="787.1888436537" width="11.2344197174" height="11.2344197174" transform="translate(832.5125722623 -424.2510357793) rotate(45)"/>
    <rect class="cls-41" x="938.3927618816" y="787.1888436537" width="11.2344197174" height="11.2344197174" transform="translate(837.0926558182 -435.3083356171) rotate(44.9999999999)"/>
    <rect class="cls-41" x="954.0301452754" y="787.1888436537" width="11.2344197174" height="11.2344197174" transform="translate(841.6727393744 -446.365635455) rotate(45)"/>
    <rect class="cls-41" x="969.6675286693" y="787.1888436537" width="11.2344197174" height="11.2344197174" transform="translate(846.2528229306 -457.4229352928) rotate(45)"/>
    <rect class="cls-41" x="985.3049120632" y="787.1888436537" width="11.2344197174" height="11.2344197174" transform="translate(850.8329064875 -468.4802351307) rotate(45)"/>
    <rect class="cls-41" x="1000.9422954571" y="787.1888436537" width="11.2344197174" height="11.2344197174" transform="translate(855.4129900424 -479.5375349684) rotate(44.9999999999)"/>
    <rect class="cls-40" x="935.5619805824" y="906.6260895478" width="48.8760388351" height="15.9550720098"/>
    <g>
      <rect class="cls-41" x="938.7454067474" y="908.952814054" width="11.2344197174" height="11.2344197174" transform="translate(923.2960722822 -399.8938519671) rotate(44.9999999999)"/>
      <rect class="cls-41" x="954.3827901413" y="908.952814054" width="11.2344197174" height="11.2344197174" transform="translate(927.8761558383 -410.951151805) rotate(44.9999999999)"/>
      <rect class="cls-41" x="970.0201735352" y="908.952814054" width="11.2344197174" height="11.2344197174" transform="translate(932.4562393955 -422.0084516428) rotate(45)"/>
    </g>
    <rect class="cls-40" x="935.5619805824" y="922.5811615576" width="48.8760388351" height="15.9550720098"/>
    <g>
      <rect class="cls-41" x="938.7454067474" y="924.9078860638" width="11.2344197174" height="11.2344197174" transform="translate(934.5780118947 -395.2207195698) rotate(44.9999999999)"/>
      <rect class="cls-41" x="954.3827901413" y="924.9078860638" width="11.2344197174" height="11.2344197174" transform="translate(939.1580954495 -406.2780194076) rotate(44.9999999999)"/>
      <rect class="cls-41" x="970.0201735352" y="924.9078860638" width="11.2344197174" height="11.2344197174" transform="translate(943.738179008 -417.3353192455) rotate(45)"/>
    </g>
    <polygon class="cls-23" points="1131.9477854507 798.4131678859 1099.3653973879 728.7336724369 999.1094967494 707.1066295773 1014.5034359505 775.2288837678 1131.9477854507 798.4131678859"/>
    <polygon class="cls-24" points="920.2551260059 707.1066295773 999.1094967494 707.1066295773 1014.5034359505 775.2288837678 904.8611868047 775.2288837678 920.2551260059 707.1066295773"/>
    <polygon class="cls-30" points="904.8611868047 775.2288837693 788.052214559 799.4522275825 788.0522145493 1091.3699668537 905.4965640517 1077.0958718807 904.8611868047 775.2288837693"/>
    <polygon class="cls-23" points="788.052214559 799.4522275829 820.6346026248 729.7727321353 920.2551260059 707.1066295773 904.8611868047 775.2288837693 788.052214559 799.4522275829"/>
    <rect class="cls-40" x="939.7859761613" y="722.2820271762" width="40.4280476773" height="52.9468565916"/>
    <line class="cls-49" x1="960.0145338731" y1="722.2820271762" x2="960.0145338731" y2="776.4257346728"/>
    <line class="cls-49" x1="980.2140238386" y1="742.5631900381" x2="939.7859761613" y2="742.5631900381"/>
  </g>
  <g>
    <path class="cls-27" d="m669.0278751538,951.4881508225c0,28.562983572,17.6734959035,38.7305206486,35.3314270949,38.7305206486s52.762825975-26.0843491083,52.762825975-54.6473326804-19.7113358054-51.9064713282-37.3692669968-51.9064713282-50.7249860732,39.2602997879-50.7249860732,67.82328336Z"/>
    <path class="cls-29" d="m661.4229280022,935.5713387907c0,28.5629835721,25.2784430551,61.5591412693,42.9363742465,61.5591412693s44.7134957837-45.7918276877,44.7134957837-74.3548112597-23.8894593001-68.1446368486-41.5473904915-68.1446368486-46.1024795386,52.3773232669-46.1024795386,80.940306839Z"/>
    <g class="cls-50">
      <path class="cls-13" d="m704.0706787109,1059.2715191741c-.8272705078-4.4909667969-1.3401489258-8.9819335938-1.7415771484-13.4729003906-.3997802734-4.4909667969-.6923217773-8.9819335938-.8561401367-13.4729003906-.167175293-4.4909667969-.1551513672-8.9819335938.0288696289-13.4729003906.1954345703-4.4909667969.4252319336-8.9819335938.5484008789-13.4729003906l.3896484375-13.4730224609.4762573242-13.4729003906c.3886108398-8.9819335938.6934814453-17.9638671875,1.1545410156-26.9458618164h.5772705078c.4610595703,8.9819946289.7659301758,17.9639282227,1.1545410156,26.9458618164l.4762573242,13.4729003906.3896484375,13.4730224609c.1231079102,4.4909667969.3529663086,8.9819335938.5484008789,13.4729003906.1839599609,4.4909667969.1960449219,8.9819335938.0288696289,13.4729003906-.1638183594,4.4909667969-.4563598633,8.9819335938-.8562011719,13.4729003906-.4013671875,4.4909667969-.9142456055,8.9819335938-1.7415161133,13.4729003906h-.5772705078Z"/>
    </g>
    <polygon class="cls-36" points="703.5526733398 970.6344342132 690.2021484375 948.3367657562 705.1658935547 969.585545053 703.5526733398 970.6344342132 703.5526733398 970.6344342132"/>
    <polygon class="cls-36" points="704.4390258789 981.7141461273 723.9309692383 964.5243878265 705.7643432617 983.1092877288 704.4390258789 981.7141461273 704.4390258789 981.7141461273"/>
  </g>
  <g>
    <path class="cls-32" d="m375.3987495094,928.6667563341c0,36.6581809933,18.1217084352,74.1107378767,28.1524360345,74.1107378767s32.5690792913-21.2845140219,32.5690792913-57.9426950151-17.348169936-82.5435511597-27.3788975353-82.5435511597-33.3426177905,29.7173273048-33.3426177905,66.3755082981Z"/>
    <path class="cls-31" d="m391.7326995069,940.0076323808c-7.7883796998,23.6069044411,1.4637732563,53.4030526485,10.9894675391,56.545765585,9.5256942828,3.1427129366,35.4513687421-3.5024955304,43.2397484418-27.1093999715,7.7883796998-23.6069044411,1.0624501447-58.5912063755-8.4632441382-61.733919312-9.5256942828-3.1427129365-37.977592143,8.6906492575-45.7659718428,32.2975536985Z"/>
    <path class="cls-33" d="m373.3783476701,990.8601326608c5.5021867961,8.7133486608,17.47558889,13.6044495985,20.9915388837,11.3842453596,3.5159499938-2.2202042389,8.221360795-12.2680039639,2.7191739989-20.9813526247s-18.4701676136-15.7800753251-21.9861176074-13.5598710862-7.2267820713,14.4436296905-1.7245952752,23.1569783514Z"/>
    <g class="cls-50">
      <path class="cls-12" d="m404.787689209,1077.9287457366c-.8272399902-5.44140625-1.3401489258-10.8829345703-1.7415161133-16.3243408203-.399810791-5.4415283203-.6923522949-10.8829345703-.8562011719-16.3243408203-.1671447754-5.4415283203-.155090332-10.8829345703.0288696289-16.3244628906.1954345703-5.44140625.4252624512-10.8828125.5484008789-16.3243408203l.3896484375-16.3243408203.4762573242-16.3243408203c.3886413574-10.8829345703.6935119629-21.7658691406,1.1545410156-32.6487426758h.5772705078c.4610595703,10.8828735352.7659301758,21.7658081055,1.1545715332,32.6487426758l.4762268066,16.3243408203.3896789551,16.3243408203c.1231384277,5.4415283203.3529663086,10.8829345703.5484008789,16.3243408203.1839599609,5.4415283203.1960144043,10.8829345703.0288696289,16.3244628906-.163848877,5.44140625-.4563903809,10.8828125-.8562011719,16.3243408203-.4013977051,5.44140625-.914276123,10.8829345703-1.7415466309,16.3243408203h-.5772705078Z"/>
    </g>
    <polygon class="cls-36" points="405.0104675293 986.2427105804 422.4650268555 966.1233258148 406.5085449219 987.4503521819 405.0104675293 986.2427105804 405.0104675293 986.2427105804"/>
    <polygon class="cls-36" points="404.2900085449 1016.0151715179 389.7383422852 993.7059674163 405.8626708984 1014.9062847991 404.2900085449 1016.0151715179 404.2900085449 1016.0151715179"/>
    <polygon class="cls-36" points="404.2680969238 961.9835553069 394.1456298828 944.5359845062 405.8845520019 960.9396099944 404.2680969238 961.9835553069 404.2680969238 961.9835553069"/>
  </g>
  <rect class="cls-41" x="471.9878112745" y="816.6987024203" width="140.0236585324" height="263.3012975797"/>
  <rect class="cls-35" x="487.3876346846" y="843.0278806448" width="10.2815629952" height="25.4223757066"/>
  <rect class="cls-35" x="512.1232468638" y="843.0278806448" width="10.2815629952" height="25.4223757066"/>
  <rect class="cls-35" x="536.8588590431" y="843.0278806448" width="10.2815629952" height="25.4223757066"/>
  <rect class="cls-35" x="561.5944712224" y="843.0278806448" width="10.2815629952" height="25.4223757066"/>
  <rect class="cls-35" x="586.3300834016" y="843.0278806448" width="10.2815629952" height="25.4223757066"/>
  <rect class="cls-35" x="487.3876346846" y="883.6648674625" width="10.2815629952" height="25.4223757066"/>
  <rect class="cls-35" x="512.1232468638" y="883.6648674625" width="10.2815629952" height="25.4223757066"/>
  <rect class="cls-35" x="536.8588590431" y="883.6648674625" width="10.2815629952" height="25.4223757066"/>
  <rect class="cls-35" x="561.5944712224" y="883.6648674625" width="10.2815629952" height="25.4223757066"/>
  <rect class="cls-35" x="586.3300834016" y="883.6648674625" width="10.2815629952" height="25.4223757066"/>
  <path class="cls-3" d="m1193.2450927177,1003.348833054c0,13.469696801-13.0078974164,24.3222172321-29.0177257256,24.3222172321-3.0014611071,0-5.8497720622-.3847545229-8.5435235081-1.0776884927h-.0770448617c-6.3115714468,3.5407751391-13.8544513239,5.6191072627-21.9361754474,5.6191072627-22.0902651708,0-39.9472910184-15.0091846783-39.9472910184-33.5591444957,0-18.5494900317,17.8570258476-43.4105515101,39.9472910184-43.4105515101,11.853164062,0,22.397974832,7.0810804925,29.7101899097,16.6252476315.2311345852-.0770448617.5388442463-.0770448617.8465539075-.0770448617,16.0098283092,0,29.0177257256,18.0881604328,29.0177257256,31.5578572338Z"/>
  <path class="cls-5" d="m1527.0363726588,1026.1751957567c0,3.8484848003-4.8491284312,7.0040356308-10.6989004934,7.0040356308-3.5403053534,0-6.1574817233-1.0006436309-7.6969696006-2.7707963076-4.3873290466,2.1553769853-9.4671222773,3.3866854157-14.8550949548,3.3866854157-16.0098283092,0-29.0177257256-10.8525204311-29.0177257256-24.3222172321s13.0078974164-31.4808123721,29.0177257256-31.4808123721,29.0177257256,18.0111155711,29.0177257256,31.4808123721c0,2.5396617225-.4617993846,4.9257035072-1.3088230778,7.1581253542v.0770448617c3.3866854157,2.2319520613,5.542062401,6.6963259696,5.542062401,9.4671222773Z"/>
  <path class="cls-4" d="m1464.7676818844,1008.2252667188c0,16.3175379704-8.1587689852,22.0902651708-21.0896215399,22.0902651708-5.618637477,0-9.544167139-1.3083532921-12.3149634466-3.7714399386-5.6191072627,2.6167065842-12.5460980318,3.7714399386-20.012402833,3.7714399386-18.7035797551,0-33.8663843711-4.7720835695-33.8663843711-21.0896215399s15.162804616-42.2567577272,33.8663843711-42.2567577272c7.235170216,0,14.0085410473,3.5407751391,19.5506034483,8.7746580932,2.7707963076-5.2338829541,6.8499459074-8.7746580932,12.7767628312-8.7746580932,14.8550949548,0,21.0896215399,24.9385761259,21.0896215399,41.2561140963Z"/>
  <g class="cls-50">
    <path class="cls-14" d="m1115.5946044922,1008.1763043304c1.8349609375,3.0285644531,3.5042724609,6.1313476562,5.1888427734,9.2274169922,1.6434326172,3.1145019531,3.2700195312,6.2364501953,4.8286132812,9.3890380859,1.6051025391,3.1317138672,3.0695800781,6.3265380859,4.611328125,9.4866943359,1.5003662109,3.1787109375,2.9639892578,6.3740234375,4.4034423828,9.580078125l-3.671875.8946533203c-.1791992188-3.3966064453-.3483886719-6.7939453125-.4566650391-10.1945800781-.0903320312-3.4017333984-.2326660156-6.8004150391-.2481689453-10.2062988281-.0628662109-3.4031982422-.0450439453-6.8109130859-.0153808594-10.2193603516.0695800781-3.4106445312.1314697266-6.8208007812.3608398438-10.2403564453.6090087891,3.3726806641,1.0506591797,6.7547607422,1.4998779297,10.1363525391.4094238281,3.3837890625.8070068359,6.7683105469,1.1237792969,10.1573486328.3641357422,3.3863525391.6015625,6.7797851562.8908691406,10.1704101562.271484375,3.3914794922.4819335938,6.7864990234.6824951172,10.1820068359l.6165771484,10.439453125-4.2885742188-9.5447998047c-1.4403076172-3.2056884766-2.8566894531-6.4221191406-4.2360839844-9.6552734375-1.3381347656-3.2515869141-2.7534179688-6.4685058594-4.0281982422-9.7485351562-1.3212890625-3.2591552734-2.5744628906-6.5489501953-3.8109130859-9.8461914062-1.1953125-3.3157958984-2.4058837891-6.6247558594-3.4508056641-10.0080566406Z"/>
  </g>
  <g class="cls-50">
    <path class="cls-11" d="m1153.8559570312,1013.8617291351c.7840576172,2.8168945312,1.3878173828,5.6560058594,2.0081787109,8.4931640625.5756835938,2.8426513672,1.1329345703,5.6875,1.6162109375,8.5415039062.5338134766,2.8477783203.9147949219,5.7144775391,1.3797607422,8.5706787109.419921875,2.8619384766.7998046875,5.7286376953,1.1534423828,8.5987548828l-3.7288818359-.376953125c.9014892578-2.6485595703,1.8125-5.2939453125,2.7813720703-7.919921875.9857177734-2.6202392578,1.9223632812-5.2570800781,2.9791259766-7.853515625,1.0118408203-2.6114501953,2.1003417969-5.197265625,3.2001953125-7.7791748047,1.1375732422-2.5692138672,2.2679443359-5.1408691406,3.5571289062-7.6591796875-.4935302734,2.7856445312-1.1457519531,5.5180664062-1.7908935547,8.2528076172-.6828613281,2.7220458984-1.3770751953,5.4403076172-2.1479492188,8.1328125-.7258300781,2.7076416016-1.5720214844,5.3748779297-2.3690185547,8.05859375-.8137207031,2.6781005859-1.6854248047,5.3366699219-2.5666503906,7.9921875l-2.6831054688,8.0852050781-1.0458984375-8.4621582031c-.3547363281-2.8698730469-.6832275391-5.7430419922-.9716796875-8.62109375-.2435302734-2.8835449219-.5708007812-5.7568359375-.7453613281-8.6489257812-.2250976562-2.8859863281-.3762207031-5.7810058594-.5090332031-8.6782226562-.0880126953-2.9028320312-.1926269531-5.8035888672-.1169433594-8.7265625Z"/>
  </g>
  <polygon class="cls-36" points="1153.83203125 1023.4462017913 1140.7719726562 1008.1427349944 1155.2342529297 1022.1285748382 1153.83203125 1023.4462017913 1153.83203125 1023.4462017913"/>
  <polygon class="cls-36" points="1119.2733154297 1018.0382428069 1126.173828125 1000.5947613616 1121.0965576172 1018.6533551116 1119.2733154297 1018.0382428069 1119.2733154297 1018.0382428069"/>
  <polygon class="cls-36" points="1164.9776611328 1025.895298471 1180.5693359375 1015.4650006194 1166.1281738281 1027.4376568694 1164.9776611328 1025.895298471 1164.9776611328 1025.895298471"/>
  <g class="cls-50">
    <path class="cls-16" d="m1397.8012695312,1027.6216168304c1.4973144531,1.4506835938,2.8360595703,3.0063476562,4.1842041016,4.5556640625l1.9573974609,2.3669433594,1.8826904297,2.4162597656c1.2496337891,1.6143798828,2.4263916016,3.2770996094,3.623046875,4.9265136719,1.1671142578,1.6690673828,2.3142089844,3.3513183594,3.419921875,5.0609130859l-3.5080566406,1.1784667969c-.205078125-3.4143066406-.4001464844-6.8291015625-.5205078125-10.2487792969-.1384277344-3.4185791016-.2781982422-6.8370361328-.3338623047-10.2608642578-.0969238281-3.4212646484-.1037597656-6.8481445312-.1083984375-10.275390625.02734375-3.4290771484.0606689453-6.8587646484.2403564453-10.2977294922.6186523438,3.3876953125,1.0908203125,6.7847900391,1.5570068359,10.1822509766.4342041016,3.3995361328.8660888672,6.7991943359,1.2081298828,10.2045898438.3831787109,3.4028320312.6822509766,6.8110351562.9826660156,10.2191162109.3184814453,3.4069824219.5622558594,6.8187255859.7960205078,10.2312011719l.4859619141,7.0935058594-3.9940185547-5.9150390625c-1.1394042969-1.6873779297-2.2373046875-3.4022216797-3.3150634766-5.1301269531-1.0484619141-1.7475585938-2.1166992188-3.4819335938-3.1120605469-5.2644042969l-1.4846191406-2.6793212891-1.41015625-2.728515625c-.8968505859-1.84765625-1.8031005859-3.6890869141-2.5506591797-5.6352539062Z"/>
  </g>
  <polygon class="cls-36" points="1409.5557861328 1024.3050885101 1417.4857177734 1016.8681988616 1410.9910888672 1025.5865826507 1409.5557861328 1024.3050885101 1409.5557861328 1024.3050885101"/>
  <g class="cls-50">
    <path class="cls-10" d="m1436.8447265625,1008.7012066741c.0021972656,3.3779296875-.216796875,6.7325439453-.4619140625,10.0861816406l-.4624023438,5.0206298828-.6052246094,5.0063476562c-.4598388672,3.3334960938-.9752197266,6.6585693359-1.6423339844,9.9825439453-.3497314453,1.662109375-.6895751953,3.3193359375-1.1625976562,4.9857177734l-.3377685547,1.2492675781-.4118652344,1.2653808594c-.2376708984.8209228516-.6717529297,1.7313232422-1.0620117188,2.6048583984l-2.6722412109-2.5357666016c2.3389892578-1.4324951172,4.7059326172-3.0545654297,6.9858398438-4.6927490234,2.2768554688-1.6657714844,4.4796142578-3.4259033203,6.6032714844-5.271484375,2.0838623047-1.8833007812,4.1179199219-3.8321533203,5.8704833984-6.0249023438,1.7659912109-2.1784667969,3.2764892578-4.5811767578,4.1538085938-7.3544921875-.1008300781,2.9216308594-1.2318115234,5.7860107422-2.6904296875,8.3497314453-1.4913330078,2.5661621094-3.3138427734,4.9266357422-5.328125,7.0787353516-1.0093994141,1.0738525391-2.0426025391,2.1257324219-3.1195068359,3.1284179688-1.0855712891.9924316406-2.2014160156,1.9476318359-3.3359375,2.8796386719-2.2785644531,1.8734130859-4.6151123047,3.5817871094-7.16796875,5.1815185547l-4.9051513672,3.0738525391,2.2327880859-5.6097412109c.2648925781-.6654052734.5734863281-1.2606201172.7957763672-2.0532226562l.3737792969-1.1184082031.3278808594-1.1705322266c.4456787109-1.5521240234.8271484375-3.1655273438,1.2171630859-4.7661132812.7888183594-3.2094726562,1.4730224609-6.4711914062,2.1960449219-9.7247314453l1.0738525391-4.8916015625,1.11328125-4.89453125c.7751464844-3.2611083984,1.5201416016-6.5301513672,2.4215087891-9.7845458984Z"/>
  </g>
  <g class="cls-50">
    <path class="cls-17" d="m1432.9848632812,1027.4491314788c-2.8308105469-3.6380615234-5.5015869141-7.3585205078-8.0194091797-11.1993408203-1.2446289062-1.9282226562-2.4401855469-3.8898925781-3.53125-5.9095458984-1.0510253906-2.0279541016-2.0919189453-4.1290283203-2.458984375-6.3974609375.5252685547,2.232421875,1.6954345703,4.2230224609,2.8756103516,6.1568603516,1.2193603516,1.9213867188,2.5374755859,3.7772216797,3.9024658203,5.5979003906,2.7540283203,3.6204833984,5.6732177734,7.1356201172,8.6999511719,10.5080566406l-1.4683837891,1.2435302734Z"/>
  </g>
  <g class="cls-50">
    <path class="cls-15" d="m1477.8699951172,1008.5853619476c2.3114013672,2.4290771484,4.2761230469,5.1652832031,6.0623779297,8.0166015625,1.7718505859,2.8637695312,3.3061523438,5.8911132812,4.5521240234,9.0708007812,1.1853027344,3.1937255859,2.1474609375,6.5329589844,2.5111083984,10.0197753906.1800537109,1.7415771484.2305908203,3.5102539062.1010742188,5.2874755859-.1583251953,1.7739257812-.4699707031,3.5502929688-.9995117188,5.2774658203l-2.9979248047-2.0166015625c.7731933594-.6313476562,1.6435546875-1.5322265625,2.4298095703-2.3681640625.7921142578-.8679199219,1.5678710938-1.7648925781,2.2761230469-2.7191162109,1.4135742188-1.9064941406,2.7662353516-3.890625,3.9122314453-6.009765625,1.1285400391-2.1228027344,2.2209472656-4.2987060547,3.0794677734-6.5889892578.4979248047-1.1245117188.8190917969-2.3056640625,1.2628173828-3.4652099609.3916015625-1.1719970703.7078857422-2.3692626953,1.1083984375-3.5638427734-.037109375,2.4974365234-.2507324219,5.0222167969-.7780761719,7.4975585938-.1323242188.6182861328-.2468261719,1.2447509766-.3961181641,1.8619384766l-.5314941406,1.8299560547c-.166015625.6162109375-.3708496094,1.2191162109-.5913085938,1.8179931641-.2153320312.6007080078-.4200439453,1.2084960938-.6776123047,1.7933349609-.9842529297,2.3607177734-2.1649169922,4.6604003906-3.6108398438,6.8039550781-.7049560547,1.0834960938-1.4893798828,2.1188964844-2.3077392578,3.1352539062-.8544921875,1.0212402344-1.6876220703,1.9315185547-2.7983398438,2.9144287109l-4.7318115234,4.1871337891,1.7337646484-6.2038574219c.8123779297-2.9064941406,1.0152587891-6.0034179688.7575683594-9.1169433594-.26953125-3.1115722656-.8775634766-6.2562255859-1.8273925781-9.3292236328-.8680419922-3.1011962891-2.0496826172-6.1390380859-3.3112792969-9.162109375-1.2797851562-3.01953125-2.7041015625-5.9956054688-4.2274169922-8.9698486328Z"/>
  </g>
  <g class="cls-50">
    <path class="cls-9" d="m1499.7546386719,1028.3111920257c1.3591308594.0874023438,2.8452148438-.0061035156,4.2507324219-.2266845703,1.4138183594-.2341308594,2.8208007812-.5961914062,4.1146240234-1.2165527344,1.2889404297-.6215820312,2.4617919922-1.4880371094,3.3812255859-2.6108398438.9367675781-1.1268310547,1.4240722656-2.5472412109,1.7604980469-3.9975585938-.1776123047,1.4680175781-.5118408203,2.9836425781-1.3680419922,4.2756347656-.8358154297,1.2852783203-1.9973144531,2.3604736328-3.3139648438,3.1779785156-1.3211669922.8175048828-2.7817382812,1.3675537109-4.2677001953,1.7816162109-1.5041503906.3994140625-2.9923095703.6674804688-4.6116943359.7398681641l.0543212891-1.9234619141Z"/>
  </g>
  <g>
    <path class="cls-44" d="m751.7421906096,1019.6083702061l24.2676978537-51.1496560035s-17.4238303969.0337251582-20.0918800947-4.7687642978"/>
    <circle class="cls-44" cx="751.7421906095" cy="1019.6083702061" r="19.7790196255"/>
    <circle class="cls-44" cx="821.2750590832" cy="1019.6083702061" r="19.7790196256"/>
    <path class="cls-47" d="m811.8225289988,977.7507721032s-13.3642658602,3.6610628269-20.6529790823,2.0735026509"/>
    <path class="cls-44" d="m770.4281976946,980.2233885633s4.4499230622,12.6538087657,10.3478238738,14.3389232833c5.8979008116,1.6851145176,16.5702927564,1.4367416295,16.5702927564,1.4367416295"/>
    <path class="cls-44" d="m766.6858551311,988.1112210197s3.9961953878,12.9106964777,9.3240333322,14.3149585757c5.3278379444,1.404262098,19.651311344,3.6510814548,19.651311344,3.6510814548l7.5830153292-25.8538724869"/>
    <path class="cls-44" d="m801.050887265,987.7014189575l20.9198922988,31.7808503916c-.1218374965.2789275463-.4905132968.3399454454-.6957204806.1151456159l-24.8087029194-13.5201539148"/>
  </g>
  <rect class="cls-35" x="529.1895114309" y="963.3110807796" width="64.8099195829" height="58.1926086594"/>
  <rect class="cls-35" x="490.1606411755" y="963.3110807796" width="27.2641782938" height="58.1926086594"/>
  <rect class="cls-25" x="494.8961911889" y="968.5062509349" width="22.5286282805" height="52.9974385041"/>
  <rect class="cls-26" x="530.9088631619" y="964.7980181045" width="61.371216121" height="55.2187340095"/>
  <path class="cls-37" d="m593.9994310138,963.3110807796s-2.6393539281,13.9973165286-12.0412249484,19.2106210909h-61.5039062574s6.1098290964-10.3362535474,8.7352116229-19.2106210909h64.8099195829Z"/>
  <polygon class="cls-39" points="494.8961911889 968.5062509349 517.4248194694 968.5062509349 517.4248194694 963.3110807796 490.1606411755 963.3110807796 494.8961911889 968.5062509349"/>
  <g>
    <path class="cls-1" d="m1783.8096258591,1000.1645886076c-.1540897234,10.236631323-8.6012082601,27.5004621572-36.2330660462,28.2704409887-22.2443548943.692464184-39.6357741508-8.1858314609-41.0986869521-18.3179354562-1.0100393458-6.9964016125,1.7818973203-16.9474032043,4.4380659068-19.6836702598-2.1549071996-3.0019308928-3.463739977-6.6963688296-3.463739977-10.6989433534,0-10.2371011088,3.2200663339-23.4462979308,19.6128903521-26.9954010837l1.1368837179-11.6100126336c1.6935776007-9.9289216619,8.20832891-21.6172646587,17.2141215884-21.6172646587,8.9282780309,0,14.2005945884,24.6499998014,15.8171273274,34.5789214633.2306647994-.0770448617.5388442463-.0770448617.8465539075-.0770448617,10.2371011088,0,20.8832962677,17.0561392677,20.8832962677,27.2932403765,0,2.8478411694-.6929339698,5.618637477-1.8471975384,8.0046792617,1.7701526767,2.8478411694,2.7707963076,6.4656611702,2.6937514459,10.8529902168Z"/>
    <g class="cls-50">
      <path class="cls-7" d="m1742.2059326172,1066.2837262054c-.5515136719-3.4893798828-.8934326172-6.9787597656-1.1610107422-10.4681396484-.2811279297-3.4893798828-.4375-6.9786376953-.5708007812-10.4680175781-.2822265625-6.9787597656.2177734375-13.9575195312.3848876953-20.9362792969l.5772705078-20.9362792969c.2590332031-6.9786376953.4622802734-13.9573974609.7696533203-20.9361572266h.3848876953c.3073730469,6.9787597656.5106201172,13.9575195312.7696533203,20.9361572266l.5772705078,20.9362792969c.1671142578,6.9787597656.6671142578,13.9575195312.3848876953,20.9362792969-.1333007812,3.4893798828-.2896728516,6.9786376953-.5708007812,10.4680175781-.267578125,3.4893798828-.6094970703,6.9787597656-1.1610107422,10.4681396484h-.3848876953Z"/>
    </g>
    <g class="cls-50">
      <path class="cls-6" d="m1743.5911865234,1015.9082379241c-2.6667480469-2.1253662109-5.2283935547-4.3276367188-7.7006835938-6.6507568359-1.2340087891-1.1604003906-2.4290771484-2.3658447266-3.5671386719-3.62109375-1.1271972656-1.2570800781-2.2249755859-2.5827636719-2.9769287109-4.0977783203.8917236328,1.4338378906,2.08984375,2.6259765625,3.3194580078,3.7600097656,1.2386474609,1.12890625,2.5262451172,2.2015380859,3.8514404297,3.2288818359,2.6468505859,2.0513916016,5.3992919922,3.994140625,8.1898193359,5.8131103516l-1.1159667969,1.5676269531Z"/>
    </g>
    <g class="cls-50">
      <polygon class="cls-8" points="1741.6275634766 1007.1698346038 1753.5992431641 992.7516217132 1743.1691894531 1008.3214459319 1741.6275634766 1007.1698346038"/>
    </g>
  </g>
</svg>